<svg xmlns="http://www.w3.org/2000/svg" version="1.1" xmlns:xlink="http://www.w3.org/1999/xlink" width="1500" height="1500" viewBox="0 0 1500 1500"><rect width="1500" height="1500" x="0" y="0" id="background" stroke="transparent" fill="#ffffff"></rect><svg xml:space="preserve" width="1000" height="1000" data-version="2" data-id="lg_CFMf59cYyrO6Mguy5r" viewBox="0 0 137 81" x="250" y="250"><rect width="100%" height="100%" fill="transparent"></rect><path fill="#991c1c" d="M18.285 75.035q-2.31-4.35-4.73-11.04-2.42-6.68-4.62-14.36-2.2-7.69-3.92-15.18-1.72-7.49-2.71-13.61-1-6.13-1-9.56 0-1.4.59-2.21 1.24-1.72 3.04-3.57 1.8-1.85 4.27-3.89.8-.65 1.5-.65t1.4.65q2.52 2.04 4.3 3.89 1.77 1.85 3 3.57.59.81.59 2.37v-.22q0 3.55.94 9.59t2.47 13.21q1.54 7.17 3.33 14.13 1.8 6.95 3.58 12.38h.32q2.9-7.2 5.42-15.63 2.53-8.43 4.73-17.24 2.2-8.81 4.14-17.14.59-2.41 2.01-3.35t4.48-.94h6.45q2.74 0 4.08.8 1.35.81 1.94 3.49 1.39 6.23 3.16 13.16 1.78 6.93 3.68 13.78 1.91 6.85 3.87 12.81 1.96 5.96 3.73 10.26h.33q2.25-5.1 4.05-12.03 1.8-6.93 3.06-14.16 1.27-7.22 1.94-13.4.67-6.17.67-9.72v.22q0-1.56.54-2.37 2.57-3.54 7.09-7.46.85-.65 1.5-.65.59 0 1.4.65 2.41 2.04 4.13 3.89 1.72 1.85 2.96 3.57.53.86.53 2.31 0 4.51-1.02 10.85t-2.76 13.51q-1.75 7.17-3.93 14.31-2.17 7.15-4.56 13.35-2.39 6.21-4.7 10.5-1.93 3.6-3.46 4.86-1.54 1.27-4.38 1.27h-6.61q-2.42 0-4.05-1.08-1.64-1.07-3.41-4.03-1.35-2.25-3.09-6.34-1.75-4.08-3.49-8.88-1.75-4.81-3.15-9.32-1.39-4.51-2.04-7.63-.75-3.54-1.26-6.85-.51-3.3-.62-5.18h-.43q-.1 1.88-.67 5.18-.56 3.31-1.37 6.85-.8 3.54-2.15 8.11-1.34 4.57-2.95 9.18-1.61 4.62-3.22 8.54-1.61 3.93-3.01 6.24-1.56 2.63-3.41 3.92t-5.13 1.29h-6.07q-2.85 0-4.3-1.03-1.45-1.02-3-3.97m88.24-63.81v.22-.06zm-105.22.22v-.22.06zm134.39.16v65.58q0 1.61-.67 2.23-.68.62-2.29.62h-11.44q-1.61 0-2.28-.62-.67-.62-.67-2.23v-65.58q0-1.56.54-2.37 2.41-3.54 6.76-7.46.81-.65 1.4-.65.64 0 1.34.65 2.37 2.04 3.98 3.89 1.61 1.86 2.79 3.57.54.86.54 2.37"></path></svg></svg>